# xmcd
#
# Track frame offsets:
# 150
# 13679
# 28355
# 41593
# 52095
# 65403
# 78158
# 92193
# 102699
# 115693
# 128406
# 140328
# 152045
# 165701
# 181528
# 193045
# 207257
# 221572
# 233825
# 248471
#
# Disc length: 3478 seconds
#
#
# Revision: 0
# Processed by: cddbd v1.5.2PL0 Copyright (c) Steve Scherf et al.
# Submitted via: FreeRIP 2.96 
#
DISCID=0e0d9414
DTITLE=Jimmie Rodgers - Country Music Legends [CD2]
DYEAR=2006
DGENRE=Country
TTITLE0=Dreaming With Tears In My Eyes
TTITLE1=Why There's A Tear In My Eye
TTITLE2=In The Jailhouse Now No.2
TTITLE3=That's Why I'm Blue
TTITLE4=The Wonderful City
TTITLE5=Peach Pickin' Time In Georgia
TTITLE6=I'm Lonely And Blue
TTITLE7=I'm Sorry We Met
TTITLE8=Tuck Away My Lonesome Blues
TTITLE9=Jimmie's Texas Blues
TTITLE10=Hobo Bill's Last Ride
TTITLE11=Why Did You Give Me Your Love ?
TTITLE12=T.B. Blues
TTITLE13=Gambling Bar Room Blues
TTITLE14=My Rough And Rowdy Ways
TTITLE15=Hobo's Meditation
TTITLE16=Whippen That Old T.B.
TTITLE17=Never No Mo' Blues
TTITLE18=Ninety-Nine Years Blues
TTITLE19=Waiting For A Train
EXTD=
EXTT0=
EXTT1=
EXTT2=
EXTT3=
EXTT4=
EXTT5=
EXTT6=
EXTT7=
EXTT8=
EXTT9=
EXTT10=
EXTT11=
EXTT12=
EXTT13=
EXTT14=
EXTT15=
EXTT16=
EXTT17=
EXTT18=
EXTT19=
PLAYORDER=
